<svg width="50" height="75" viewBox="0 0 50 75" fill="none" xmlns="http://www.w3.org/2000/svg">
<g clip-path="url(#clip0_33_315)">
<path opacity="0.868" fill-rule="evenodd" clip-rule="evenodd" d="M9.3798 0C9.50902 0 9.63817 0 9.7674 0C10.2788 0.667364 10.1625 1.18416 9.41856 1.55039C9.12499 1.43755 8.90538 1.24375 8.75964 0.968992C8.91833 0.612209 9.12507 0.289212 9.3798 0Z" fill="white"/>
<path opacity="0.797" fill-rule="evenodd" clip-rule="evenodd" d="M42.9457 1.47211C43.0775 1.45969 43.2067 1.47261 43.3333 1.51085C43.4402 1.6436 43.5694 1.7469 43.7209 1.82076C43.8213 2.11413 43.8213 2.41113 43.7209 2.71178C43.422 2.89516 43.1637 3.11468 42.9457 3.37035C43.0362 3.46075 43.1266 3.55113 43.2171 3.64153C43.3946 3.4029 43.5626 3.15755 43.7209 2.90547C44.1103 2.95959 44.3171 3.19203 44.3411 3.60279C44.2374 4.39805 43.8498 4.61757 43.1783 4.26136C42.9899 4.45079 42.7833 4.60575 42.5582 4.72624C42.3038 4.69596 42.0841 4.59266 41.8992 4.41632C41.8898 4.28704 41.9157 4.1579 41.9768 4.02892C42.1447 3.74483 42.3126 3.46075 42.4806 3.17665C42.4644 3.13125 42.4385 3.09251 42.4031 3.06043C42.5486 2.78976 42.6003 2.49276 42.5582 2.16942C42.7047 2.18519 42.8209 2.13353 42.907 2.01446C42.9455 1.8355 42.9584 1.65471 42.9457 1.47211Z" fill="white"/>
<path opacity="0.872" fill-rule="evenodd" clip-rule="evenodd" d="M47.5194 2.01446C47.5967 2.01215 47.6484 2.05089 47.6744 2.13068C47.2857 3.10124 46.7301 3.96642 46.0078 4.72624C45.1786 5.58084 44.3259 6.40729 43.4496 7.20558C43.3482 7.37149 43.2319 7.52645 43.1008 7.67046C43.4619 7.87585 43.617 8.18577 43.5659 8.60021C43.512 9.1342 43.357 9.63781 43.1008 10.1111C43.4122 10.0302 43.6447 9.83655 43.7985 9.52996C43.9753 9.47689 44.1561 9.46403 44.3411 9.49122C44.4961 9.43954 44.5995 9.33626 44.6512 9.1813C45.5257 9.05555 45.9004 8.55194 45.7752 7.67046C45.9044 7.38636 46.0336 7.10228 46.1628 6.81818C46.2162 6.75181 46.2808 6.70016 46.3566 6.66322C46.4468 7.10001 46.4597 7.53906 46.3954 7.98037C46.2032 8.26108 46.0999 8.571 46.0853 8.91013C45.9206 9.17278 45.7268 9.41816 45.5039 9.64618C44.7205 9.97306 43.9711 10.3605 43.2558 10.8084C42.8261 10.9198 42.4127 11.0747 42.0155 11.2732C41.392 11.4461 40.9915 11.2266 40.814 10.6147C40.8687 8.87177 41.2305 7.19303 41.8992 5.57851C41.9509 5.52686 42.0026 5.47521 42.0543 5.42356C42.1285 5.55521 42.1673 5.69726 42.1706 5.84969C42.0771 6.39385 41.9738 6.93621 41.8605 7.47676C41.8863 7.54132 41.9122 7.60589 41.938 7.67046C43.3037 6.47344 44.6345 5.23377 45.9302 3.95145C46.4235 3.27491 46.9533 2.62925 47.5194 2.01446ZM41.938 8.91013C42.3258 8.87797 42.6488 9.00713 42.907 9.29752C42.9558 9.48371 42.8913 9.6258 42.7132 9.72366C42.3208 9.96051 41.9332 9.96051 41.5504 9.72366C41.3839 9.30953 41.5131 9.03835 41.938 8.91013Z" fill="white"/>
<path opacity="0.629" fill-rule="evenodd" clip-rule="evenodd" d="M0 3.40973C0 3.12549 0 2.84126 0 2.55702C0.0991806 2.43118 0.20254 2.30198 0.310078 2.16942C0.367459 2.42872 0.341619 2.68712 0.232558 2.94462C0.309285 3.22408 0.360964 3.50831 0.387597 3.79733C0.310078 3.79733 0.232558 3.79733 0.155039 3.79733C0.162631 3.63819 0.110951 3.50899 0 3.40973Z" fill="white"/>
<path opacity="0.664" fill-rule="evenodd" clip-rule="evenodd" d="M2.01555 2.16942C2.10664 2.15245 2.18415 2.17828 2.24811 2.24694C2.50212 2.66805 2.54088 3.10733 2.36439 3.56477C2.27645 3.75858 2.13433 3.84902 1.93803 3.83609C2.13238 3.45719 2.19698 3.05668 2.13183 2.63454C2.12436 3.0469 1.9564 3.3699 1.62795 3.60353C1.49161 3.66535 1.36241 3.65244 1.24036 3.56477C1.39774 3.40144 1.5657 3.2464 1.74423 3.09966C1.78825 2.83577 1.90453 2.61613 2.09307 2.44074C2.05515 2.35249 2.02931 2.26204 2.01555 2.16942Z" fill="white"/>
<path opacity="0.812" fill-rule="evenodd" clip-rule="evenodd" d="M38.6822 2.2469C38.8114 2.2469 38.9405 2.2469 39.0698 2.2469C39.0719 2.40824 39.0202 2.55028 38.9147 2.67304C38.3326 3.00271 37.7383 3.31263 37.1318 3.60279C36.8389 3.76642 36.5676 3.96012 36.3178 4.18388C36.4487 4.33658 36.5391 4.53028 36.5891 4.76498C36.5549 5.06911 36.3998 5.26281 36.124 5.34607C36.0781 5.14252 36.0523 4.93591 36.0465 4.72624C35.9432 4.72624 35.8398 4.72624 35.7364 4.72624C35.6581 4.27754 35.7873 3.90306 36.124 3.60279C36.9815 3.14858 37.8343 2.69662 38.6822 2.2469Z" fill="white"/>
<path opacity="0.912" fill-rule="evenodd" clip-rule="evenodd" d="M30.2326 10.4597C30.1127 10.6689 29.9319 10.8109 29.6899 10.8858C28.8815 11.1653 28.0546 11.372 27.2093 11.5057C23.4564 12.1002 19.6837 12.3068 15.8915 12.1255C14.6526 12.0829 13.4639 11.8246 12.3256 11.3507C12.1018 11.2183 11.9984 11.0246 12.0155 10.7696C12.1673 10.0617 12.5291 9.4806 13.1008 9.02634C13.816 8.57843 14.5654 8.19104 15.3488 7.86415C15.7499 7.5398 16.0471 7.1395 16.2403 6.66322C16.4332 6.07279 16.6141 5.47878 16.7829 4.8812C16.855 4.65948 16.9843 4.47869 17.1705 4.33884C17.2351 4.40341 17.2998 4.46798 17.3643 4.53254C17.0415 5.47411 16.8995 6.4426 16.938 7.43802C17.1979 7.93683 17.4822 7.93683 17.7907 7.43802C17.9571 6.53182 18.1381 5.62789 18.3333 4.72624C18.4166 4.43035 18.5587 4.17209 18.7597 3.95145C18.7855 4.05475 18.8114 4.15806 18.8372 4.26136C18.6957 5.00557 18.6311 5.75454 18.6434 6.50826C18.7481 6.87125 18.9677 7.14242 19.3023 7.3218C23.2152 8.34871 26.8845 7.78056 30.3101 5.61725C30.507 5.44643 30.675 5.25273 30.8139 5.03616C30.8536 4.26165 31.0087 3.51269 31.2791 2.78926C31.3791 2.61167 31.5083 2.45671 31.6667 2.32438C31.7207 3.2268 31.6044 4.1049 31.3178 4.95868C31.3512 5.18703 31.4674 5.36781 31.6667 5.50103C31.807 5.99485 31.6519 6.35642 31.2015 6.58574C30.9391 6.37013 30.642 6.27974 30.3101 6.31457C29.2743 7.22989 28.0598 7.92722 26.6667 8.40651C26.0655 8.5679 25.4712 8.74873 24.8837 8.94886C23.7067 9.05578 22.5311 9.172 21.3566 9.29752C20.314 9.27025 19.345 8.99907 18.4496 8.48399C18.2983 8.3233 18.1562 8.1554 18.0233 7.98037C17.826 8.38799 17.5805 8.76245 17.2868 9.10382C16.5839 9.36555 16.1833 9.12017 16.0853 8.36777C16.0271 8.31927 15.9625 8.28053 15.8915 8.25155C16.0347 8.13587 16.0993 7.99385 16.0853 7.82541C15.8145 8.17353 15.5173 8.49631 15.1938 8.7939C14.6372 9.03099 14.0687 9.23763 13.4884 9.41374C12.8171 9.63866 12.7913 9.8969 13.4108 10.1885C14.4498 10.4845 15.5092 10.6653 16.5891 10.7309C21.0277 11.0885 25.4334 10.8432 29.8062 9.99483C30.1229 9.98864 30.265 10.1436 30.2326 10.4597Z" fill="white"/>
<path opacity="0.809" fill-rule="evenodd" clip-rule="evenodd" d="M0.852707 2.55682C1.18889 2.63453 1.30517 2.84125 1.20154 3.17697C1.16451 3.5885 0.944869 3.74354 0.542629 3.64209C0.541439 3.32737 0.580199 3.0173 0.658908 2.71185C0.736017 2.66799 0.800616 2.6163 0.852707 2.55682Z" fill="white"/>
<path opacity="0.859" fill-rule="evenodd" clip-rule="evenodd" d="M4.57365 2.55682C5.39933 3.1301 5.39933 3.69858 4.57365 4.26224C4.30347 4.13413 4.09675 3.94033 3.95349 3.68085C4.11143 3.27413 4.31814 2.89945 4.57365 2.55682Z" fill="white"/>
<path opacity="0.875" fill-rule="evenodd" clip-rule="evenodd" d="M8.44964 2.94421C8.99537 2.9375 9.53801 2.97624 10.0775 3.06043C10.319 3.42023 10.2673 3.73015 9.92251 3.99019C9.59514 4.14082 9.25925 4.26995 8.91475 4.37758C8.68196 4.46794 8.47522 4.59707 8.2946 4.76498C8.64925 5.08664 8.6622 5.4353 8.33336 5.81095C8.09367 6.03732 7.82235 6.2181 7.51941 6.35331C7.27016 6.23917 7.01176 6.20043 6.74421 6.23709C6.50441 6.44051 6.25892 6.63421 6.00778 6.81818C5.38367 6.38992 4.84103 6.49323 4.37987 7.1281C4.32656 7.19254 4.33948 7.24419 4.41863 7.28306C4.83451 7.40144 5.06707 7.67262 5.1163 8.09659C4.96271 9.41165 4.36839 10.4706 3.33336 11.2732C2.59976 11.6996 1.85041 11.7513 1.0853 11.4282C0.824126 11.245 0.656171 10.9996 0.581421 10.6921C0.588653 9.02619 1.11837 7.5541 2.17057 6.27583C2.24809 6.30165 2.29977 6.35331 2.32561 6.43078C1.91254 7.17882 1.56371 7.95364 1.2791 8.75516C1.02967 9.49734 1.27515 9.97515 2.01553 10.1885C2.91775 10.3604 3.65419 10.0892 4.22483 9.375C4.37234 9.22461 4.43693 9.04385 4.41863 8.83264C3.6097 8.81273 3.33838 8.42534 3.60468 7.67045C3.93948 6.5477 4.67591 5.87621 5.81398 5.65599C6.02086 5.74796 6.22758 5.81252 6.43413 5.84969C6.58289 5.41753 6.75084 4.99139 6.93801 4.57128C7.03596 4.40803 7.17807 4.33055 7.36437 4.33884C7.32686 4.59435 7.40438 4.80095 7.59692 4.95868C7.88212 4.35092 8.34723 3.95061 8.99227 3.75775C8.57328 3.54098 8.23739 3.61846 7.98452 3.99019C7.87258 4.05066 7.76925 4.03775 7.67444 3.95145C7.81863 3.52378 8.07708 3.18804 8.44964 2.94421Z" fill="white"/>
<path opacity="0.849" fill-rule="evenodd" clip-rule="evenodd" d="M33.9535 3.09917C34.0311 3.09917 34.1086 3.09917 34.1861 3.09917C34.2014 4.27306 34.0076 5.40942 33.6047 6.50827C33.4979 6.64102 33.3687 6.74432 33.2171 6.81818C33.1403 6.74616 33.1015 6.65577 33.1008 6.54701C33.2294 5.89439 33.3199 5.23581 33.3721 4.57128C33.4828 4.04544 33.6766 3.55474 33.9535 3.09917Z" fill="white"/>
<path opacity="0.809" fill-rule="evenodd" clip-rule="evenodd" d="M14.8837 3.64153C14.9612 3.64153 15.0387 3.64153 15.1162 3.64153C15.0074 4.68927 14.8136 5.72232 14.5348 6.7407C14.4305 6.99996 14.2496 7.18075 13.9922 7.28306C14.0516 6.03786 14.3487 4.82402 14.8837 3.64153Z" fill="white"/>
<path opacity="0.683" fill-rule="evenodd" clip-rule="evenodd" d="M45.1163 3.71901C45.1979 3.70742 45.2754 3.72034 45.3489 3.75777C45.023 4.44552 44.5321 4.98816 43.876 5.38568C43.7727 5.43736 43.6693 5.43736 43.5659 5.38568C44.1271 4.86355 44.6439 4.30799 45.1163 3.71901Z" fill="white"/>
<path opacity="0.878" fill-rule="evenodd" clip-rule="evenodd" d="M11.8605 4.10641C11.9083 4.11498 11.9471 4.14081 11.9768 4.18389C11.9278 5.17561 11.7856 6.15701 11.5504 7.1281C11.5661 7.26041 11.6307 7.36372 11.7442 7.43802C11.8444 7.30253 11.9347 7.16049 12.0155 7.01188C12.4446 6.77235 12.6513 6.88857 12.6357 7.36054C12.5906 7.98014 12.3323 8.48376 11.8605 8.87139C11.1664 9.04277 10.8304 8.77159 10.8527 8.05785C10.9102 6.66595 11.2461 5.3488 11.8605 4.10641Z" fill="white"/>
<path opacity="0.855" fill-rule="evenodd" clip-rule="evenodd" d="M47.2093 4.33884C47.9643 4.47962 48.1581 4.89306 47.7907 5.57915C47.3159 6.12831 46.9412 6.07663 46.6666 5.42412C46.7799 5.02715 46.9608 4.66539 47.2093 4.33884Z" fill="white"/>
<path opacity="0.887" fill-rule="evenodd" clip-rule="evenodd" d="M30.2325 10.4597C30.365 9.85506 30.5588 9.26111 30.8139 8.67769C31.246 8.10984 31.3751 8.16144 31.2015 8.83264C30.2012 10.9054 30.8343 11.7705 33.1007 11.4282C33.8868 11.159 34.4165 10.6296 34.6898 9.83988C34.9588 9.11537 35.0881 8.36645 35.0774 7.59297C35.142 7.52841 35.2067 7.46384 35.2712 7.39928C35.6119 7.37582 35.9478 7.32416 36.279 7.24432C36.5685 6.76491 36.8139 6.2613 37.0154 5.73347C37.1223 5.60072 37.2515 5.49741 37.403 5.42355C37.4344 5.71122 37.4344 5.9953 37.403 6.27583C37.4654 6.3769 37.5558 6.42855 37.6743 6.43078C37.8354 6.31944 38.0162 6.26778 38.217 6.27583C38.1991 6.81525 38.0182 7.29304 37.6743 7.70919C37.2935 7.90963 36.9705 7.84502 36.7054 7.5155C36.5116 7.70919 36.3178 7.90289 36.124 8.09659C35.9809 8.18399 35.8259 8.22273 35.6588 8.21281C35.4038 9.53352 34.8999 10.7474 34.1472 11.8543C33.1733 13.0251 31.9976 13.2963 30.6201 12.6679C30.4705 12.4929 30.3542 12.2992 30.2712 12.0868C30.2325 11.545 30.2196 11.0027 30.2325 10.4597Z" fill="white"/>
<path opacity="0.871" fill-rule="evenodd" clip-rule="evenodd" d="M39.2248 6.3533C40.0419 6.38447 40.2616 6.77207 39.8837 7.51609C39.5704 7.78584 39.2603 7.76001 38.9535 7.43857C38.878 7.03261 38.9685 6.67086 39.2248 6.3533Z" fill="white"/>
<path opacity="0.82" fill-rule="evenodd" clip-rule="evenodd" d="M47.6744 6.7407C47.8097 6.79877 47.8872 6.90207 47.9069 7.05062C47.6849 8.07451 47.5169 9.10762 47.4031 10.1498C47.3585 10.6278 47.1389 10.9894 46.7441 11.2345C46.8156 10.1307 46.9578 9.02014 47.1705 7.90289C47.3617 7.52282 47.5296 7.13542 47.6744 6.7407Z" fill="white"/>
<path opacity="0.859" fill-rule="evenodd" clip-rule="evenodd" d="M8.99221 6.89566C9.34732 6.85096 9.67035 6.92844 9.9612 7.12809C10.1183 7.70787 9.95027 8.18561 9.45732 8.56146C8.84229 8.73285 8.22213 8.88781 7.59686 9.02634C6.81708 9.38212 6.36489 9.9891 6.24027 10.8471C5.83573 12.6324 5.60317 14.4402 5.5426 16.2707C5.53919 16.6303 5.42291 16.9402 5.19376 17.2004C5.10615 15.3296 5.22243 13.4701 5.5426 11.6219C5.75415 10.3856 6.28387 9.31371 7.13174 8.4065C7.53238 8.1416 7.94585 7.8963 8.37205 7.67045C8.55585 7.38456 8.7626 7.12629 8.99221 6.89566Z" fill="white"/>
<path opacity="0.878" fill-rule="evenodd" clip-rule="evenodd" d="M32.7907 7.90289C33.6213 8.08088 33.8926 8.57181 33.6046 9.37576C33.3779 9.7294 33.0808 9.81987 32.7132 9.64708C32.528 9.48816 32.373 9.30723 32.248 9.10444C32.4404 8.70685 32.6214 8.3063 32.7907 7.90289Z" fill="white"/>
<path opacity="0.872" fill-rule="evenodd" clip-rule="evenodd" d="M50 8.6002C50 9.0134 50 9.42668 50 9.83987C49.7995 10.2263 49.567 10.6008 49.3023 10.9633C49.0131 11.126 48.703 11.2164 48.3721 11.2345C48.3714 11.0944 48.4101 10.9653 48.4884 10.8471C48.7989 10.6598 49.0702 10.4273 49.3023 10.1498C49.2046 9.93564 49.0624 9.75488 48.876 9.60744C48.8081 9.50106 48.7694 9.38484 48.7597 9.25878C48.8952 8.87154 49.0632 8.497 49.2636 8.13533C49.3449 8.05653 49.4353 8.04359 49.5349 8.09659C49.708 8.25643 49.8631 8.42425 50 8.6002Z" fill="white"/>
<path opacity="0.882" fill-rule="evenodd" clip-rule="evenodd" d="M38.8372 8.75516C39.2757 8.65777 39.5728 8.81273 39.7287 9.22004C39.8768 9.9843 39.683 10.6429 39.1473 11.1958C38.0991 11.5973 37.7502 11.2745 38.1008 10.2273C38.3485 9.7321 38.5939 9.24143 38.8372 8.75516ZM38.7597 10.0723C38.9623 10.055 39.0915 10.1455 39.1473 10.3435C38.9188 10.6126 38.6862 10.6384 38.4496 10.421C38.515 10.2655 38.6184 10.1493 38.7597 10.0723Z" fill="white"/>
<path opacity="0.87" fill-rule="evenodd" clip-rule="evenodd" d="M36.3566 9.91736C36.7707 9.96966 37.0033 10.2021 37.0543 10.6147C36.9797 10.9833 36.8505 11.332 36.6667 11.6606C36.8065 11.9015 36.9358 12.1468 37.0543 12.3967C36.9882 12.84 36.7686 13.1758 36.3954 13.4039C36.1027 13.2922 35.8831 13.0985 35.7365 12.8228C35.9173 12.4354 36.0982 12.048 36.2791 11.6606C36.0671 11.5426 35.912 11.3747 35.814 11.157C35.9956 10.7425 36.1765 10.3293 36.3566 9.91736Z" fill="white"/>
<path opacity="0.875" fill-rule="evenodd" clip-rule="evenodd" d="M9.8449 10.1498C10.8168 10.4185 10.946 10.9224 10.2325 11.6614C10.095 11.7366 9.95289 11.8013 9.80614 11.8552C9.66769 11.6537 9.4739 11.5245 9.22475 11.4676C8.80498 11.8786 8.37862 11.8786 7.94568 11.4676C8.01258 10.9731 8.24514 10.5597 8.64335 10.2273C8.98126 10.3585 9.21382 10.591 9.34103 10.925C9.49576 10.6548 9.66374 10.3964 9.8449 10.1498Z" fill="white"/>
<path opacity="0.503" fill-rule="evenodd" clip-rule="evenodd" d="M44.9613 11.2345C45.093 11.2221 45.2222 11.235 45.3489 11.2733C45.1729 11.484 44.9532 11.6261 44.69 11.6996C44.6798 11.4877 44.7702 11.3326 44.9613 11.2345Z" fill="white"/>
<path opacity="0.922" fill-rule="evenodd" clip-rule="evenodd" d="M1.4729 18.905H49.6124V67.0971H1.4729V18.905ZM2.86825 20.2996H48.2946V65.7025H2.86825V20.2996Z" fill="white"/>
<path opacity="0.961" fill-rule="evenodd" clip-rule="evenodd" d="M25.663 23.2869C32.3242 29.8156 38.9392 36.4014 45.5079 43.0442C39.1244 49.4889 32.7033 55.8939 26.2443 62.259C26.2056 60.6322 26.1926 59.0051 26.2056 57.3778C27.195 57.2292 27.8797 56.6868 28.2598 55.7508C28.7143 54.1932 28.2363 53.0181 26.8257 52.2255C25.4852 51.7953 24.3612 52.1182 23.4536 53.194C22.7043 54.6173 22.924 55.8699 24.1126 56.9517C24.4323 57.202 24.7941 57.344 25.1978 57.3778C25.2236 59.0058 25.1978 60.6328 25.1203 62.259C18.6862 55.8799 12.2779 49.4749 5.89551 43.0442C12.4626 36.4289 19.0517 29.8432 25.663 23.2869ZM24.8878 31.1123C23.2438 32.0453 21.9777 33.3495 21.0893 35.025C21.1094 35.1227 21.1611 35.2002 21.2443 35.2575C22.4426 35.7217 23.6829 35.9929 24.9653 36.071C24.9909 34.4047 24.965 32.7518 24.8878 31.1123ZM21.8745 31.262C20.5342 31.7639 19.284 32.3762 18.1436 33.243C18.6467 33.6365 19.1634 34.0109 19.694 34.3665C20.3162 33.1888 21.1173 32.1428 22.0971 31.2286C22.0732 31.2215 22.0503 31.2225 22.0301 31.2249C21.9865 31.2301 21.9326 31.2402 21.8729 31.2617L21.8745 31.262ZM26.5157 31.1898V36.071C27.8861 35.9999 29.178 35.6641 30.3916 35.0638C29.7153 33.8828 28.8626 32.8368 27.8335 31.9259C27.4588 31.564 27.0195 31.3187 26.5157 31.1898ZM29.3839 31.1898C29.8988 31.7694 30.4026 32.3635 30.8955 32.9718C31.1766 33.4174 31.4479 33.8694 31.7095 34.3277C31.7612 34.3794 31.8128 34.3794 31.8645 34.3277C32.3098 33.9954 32.7621 33.6726 33.2211 33.3592C33.3224 33.3303 33.2465 33.2339 33.1048 33.0881C31.9621 32.2716 30.7218 31.6389 29.3839 31.1898ZM34.5002 34.289C33.7992 34.7944 33.1274 35.3367 32.4847 35.9161C33.2609 37.9363 33.6872 40.0283 33.7637 42.1919C33.7927 42.2629 33.8315 42.3275 33.88 42.3856C35.2751 42.4243 36.6705 42.4373 38.0661 42.4243C38.0761 41.5807 37.9599 40.7543 37.7172 39.945C37.1221 37.7723 36.0497 35.8869 34.5002 34.289ZM16.9033 34.3665C16.5181 34.687 16.1692 35.0486 15.8567 35.4512C14.4664 37.4507 13.6266 39.6589 13.3374 42.0757C14.7842 42.1144 16.2312 42.1273 17.6785 42.1144C17.7393 39.9545 18.1785 37.8755 18.9963 35.8773C18.3215 35.3343 17.6238 34.8307 16.9033 34.3665ZM20.3141 36.5359C19.634 38.3593 19.2723 40.2447 19.2288 42.1919C21.1429 42.169 23.0551 42.1948 24.9653 42.2694V37.6206C24.1264 37.5933 23.2995 37.477 22.4847 37.2719C21.7677 37.0039 21.0442 36.7585 20.3141 36.5359ZM30.9343 36.5359C29.542 37.1916 28.0692 37.5532 26.5157 37.6206V42.2694C28.4284 42.2614 30.3405 42.2872 32.2521 42.3468C32.2164 40.8152 31.9709 39.3172 31.5157 37.853C31.3988 37.3628 31.205 36.9238 30.9343 36.5359ZM13.3374 43.7415C13.4031 44.7031 13.571 45.6586 13.8412 46.6082C14.6819 49.2286 16.2065 51.3464 18.4149 52.9615C18.9275 52.6992 19.4055 52.3893 19.849 52.0318C18.4461 49.4187 17.7225 46.6294 17.6785 43.664C16.2179 43.6384 14.7709 43.6642 13.3374 43.7415ZM19.2288 43.7415C19.2476 46.4835 19.9453 49.0404 21.3219 51.4119C22.4936 50.9556 23.7081 50.6973 24.9653 50.6371C24.9911 48.3638 24.9653 46.0911 24.8878 43.819C23.005 43.7422 21.1186 43.7164 19.2288 43.7415ZM26.5157 43.819V50.6371C27.7185 50.7252 28.8943 50.9577 30.0428 51.3344C30.1074 51.3086 30.162 51.389 30.2266 51.3632C31.466 49.0683 32.1479 46.5086 32.2521 43.8964C30.3402 43.8562 28.4281 43.8303 26.5157 43.819ZM33.725 43.8964C33.6822 46.7534 32.9845 49.4394 31.6319 51.9543C32.0554 52.364 32.5333 52.6998 33.066 52.9615C33.8061 52.455 34.4779 51.8609 35.0816 51.1795C36.8564 49.0855 37.8254 46.6707 37.9885 43.9352C36.5676 43.8964 35.1464 43.8835 33.725 43.8964Z" fill="white"/>
<path opacity="0.956" fill-rule="evenodd" clip-rule="evenodd" d="M5.96904 23.3988C11.7057 23.373 17.4421 23.3988 23.1783 23.4762C22.3914 24.3016 21.5903 25.1152 20.7752 25.9168C16.7193 26.0241 12.6625 26.0629 8.6047 26.0331C8.61764 30.0621 8.6047 34.091 8.56594 38.1198C7.73798 38.9603 6.89818 39.7867 6.04656 40.5992C5.96904 34.8659 5.9432 29.1325 5.96904 23.3988Z" fill="white"/>
<path opacity="0.963" fill-rule="evenodd" clip-rule="evenodd" d="M27.9845 23.3988C33.6951 23.3988 39.4057 23.3988 45.1163 23.3988C45.1421 29.1067 45.1163 34.8143 45.0388 40.5217C44.1848 39.7328 43.3709 38.9063 42.5969 38.0424C42.5581 34.0135 42.5452 29.9846 42.5581 25.9556C38.5271 25.9685 34.496 25.9556 30.4651 25.9168C29.5691 25.1375 28.7422 24.2981 27.9845 23.3988Z" fill="white"/>
<path opacity="0.97" fill-rule="evenodd" clip-rule="evenodd" d="M5.96899 45.4029C6.02627 45.3927 6.07796 45.4057 6.12403 45.4416C6.90982 46.3045 7.72377 47.1439 8.56589 47.9597C8.60465 51.9628 8.6176 55.9658 8.60465 59.969C12.6357 59.9561 16.6667 59.969 20.6977 60.0077C21.5246 60.8342 22.3514 61.6606 23.1783 62.4871C17.4419 62.5258 11.7055 62.5388 5.96899 62.5258C5.96899 56.8182 5.96899 51.1106 5.96899 45.4029Z" fill="white"/>
<path opacity="0.978" fill-rule="evenodd" clip-rule="evenodd" d="M45.0388 45.4029C45.1162 51.0975 45.1421 56.8051 45.1163 62.5258C39.4057 62.5388 33.695 62.5258 27.9845 62.4871C28.7339 61.6348 29.5349 60.8342 30.3876 60.0852C34.4443 60.0465 38.5012 60.0336 42.5581 60.0465C42.5452 56.0175 42.5581 51.9886 42.5969 47.9597C43.3461 47.0431 44.1601 46.1908 45.0388 45.4029Z" fill="white"/>
<path opacity="0.878" fill-rule="evenodd" clip-rule="evenodd" d="M28.2171 68.7242C29.5731 68.673 30.1028 69.3187 29.8063 70.6611C29.4532 71.2871 28.9235 71.5067 28.2171 71.3197C27.8493 71.2333 27.6038 71.0138 27.4807 70.6611C27.429 70.2479 27.429 69.8347 27.4807 69.4215C27.6183 69.0641 27.8638 68.8317 28.2171 68.7242ZM28.4497 69.344C28.7485 69.2932 28.9681 69.3966 29.1086 69.6539C29.1603 69.9121 29.1603 70.1705 29.1086 70.4287C28.7982 70.8289 28.4881 70.8289 28.1783 70.4287C28.1266 70.1705 28.1266 69.9121 28.1783 69.6539C28.2318 69.5106 28.3222 69.4072 28.4497 69.344Z" fill="white"/>
<path opacity="0.894" fill-rule="evenodd" clip-rule="evenodd" d="M13.0233 68.8017C13.2301 68.8017 13.4367 68.8017 13.6435 68.8017C13.6435 69.6281 13.6435 70.4545 13.6435 71.281C13.4367 71.281 13.2301 71.281 13.0233 71.281C13.0233 70.4545 13.0233 69.6281 13.0233 68.8017Z" fill="white"/>
<path opacity="0.889" fill-rule="evenodd" clip-rule="evenodd" d="M13.9535 68.8017C14.2389 68.7889 14.5231 68.8017 14.8062 68.8404C14.9401 69.2073 15.0564 69.5817 15.155 69.9638C15.2537 69.5817 15.37 69.2073 15.5039 68.8404C15.787 68.8017 16.0712 68.7889 16.3566 68.8017C16.3566 69.6281 16.3566 70.4545 16.3566 71.281C16.1757 71.281 15.9948 71.281 15.814 71.281C15.8588 69.7531 15.7555 69.7531 15.5039 71.281C15.2657 71.3056 15.0332 71.2798 14.8062 71.2035C14.6192 70.2825 14.5417 70.3083 14.5736 71.281C14.3669 71.281 14.1602 71.281 13.9535 71.281C13.9535 70.4545 13.9535 69.6281 13.9535 68.8017Z" fill="white"/>
<path opacity="0.872" fill-rule="evenodd" clip-rule="evenodd" d="M17.3643 68.8017C17.6183 68.7797 17.8638 68.8055 18.1007 68.8791C18.4373 69.6689 18.7344 70.4696 18.9922 71.281C18.7583 71.2938 18.5257 71.2808 18.2945 71.2423C18.189 71.1195 18.1373 70.9774 18.1395 70.8161C17.8528 70.8121 17.5686 70.7862 17.2868 70.7386C17.274 70.9189 17.2224 71.0868 17.1318 71.2423C16.9006 71.2808 16.668 71.2938 16.4341 71.281C16.6983 70.4371 17.0083 69.6106 17.3643 68.8017ZM17.6744 69.8089C17.7394 69.8973 17.7911 70.0006 17.8294 70.1188C17.7346 70.2051 17.6313 70.2181 17.5194 70.1576C17.6032 70.0545 17.6549 69.9383 17.6744 69.8089Z" fill="white"/>
<path opacity="0.86" fill-rule="evenodd" clip-rule="evenodd" d="M19.0698 68.8017C19.3799 68.8017 19.69 68.8017 20.0001 68.8017C20.078 69.1908 20.1684 69.5782 20.2714 69.9638C20.3728 69.5826 20.489 69.208 20.6202 68.8404C20.9292 68.8017 21.2393 68.7888 21.5504 68.8017C21.5504 69.6281 21.5504 70.4545 21.5504 71.281C21.3179 71.281 21.0853 71.281 20.8528 71.281C20.8656 71.0472 20.8526 70.8147 20.814 70.5837C20.767 70.8107 20.7024 71.0302 20.6202 71.2423C20.4135 71.2939 20.2068 71.2939 20.0001 71.2423C19.8683 70.9873 19.7778 70.7161 19.7287 70.4287C19.6901 70.7117 19.6772 70.9957 19.69 71.281C19.4832 71.281 19.2766 71.281 19.0698 71.281C19.0698 70.4545 19.0698 69.6281 19.0698 68.8017Z" fill="white"/>
<path opacity="0.848" fill-rule="evenodd" clip-rule="evenodd" d="M22.7906 68.8017C22.9715 68.8017 23.1524 68.8017 23.3333 68.8017C23.3072 69.0967 23.3459 69.3807 23.4496 69.6539C23.7479 69.277 24.1096 68.993 24.5348 68.8017C24.661 68.8114 24.7772 68.8501 24.8837 68.9179C24.6155 69.1733 24.357 69.4444 24.1085 69.7314C24.3044 70.1724 24.5757 70.5597 24.9224 70.8936C25.0006 71.0118 25.0394 71.1409 25.0387 71.281C24.779 71.2938 24.5206 71.2809 24.2635 71.2423C24.0462 70.9492 23.8396 70.6521 23.6434 70.3513C23.5979 70.3674 23.5592 70.3933 23.5271 70.4287C23.4846 70.7131 23.4458 70.9972 23.4108 71.281C23.2041 71.281 22.9974 71.281 22.7906 71.281C22.7906 70.4545 22.7906 69.6281 22.7906 68.8017Z" fill="white"/>
<path opacity="0.846" fill-rule="evenodd" clip-rule="evenodd" d="M25.1163 68.8017C25.3231 68.8017 25.5297 68.8017 25.7365 68.8017C25.7365 69.1116 25.7365 69.4215 25.7365 69.7314C25.9949 69.7314 26.2533 69.7314 26.5117 69.7314C26.5117 69.4215 26.5117 69.1116 26.5117 68.8017C26.7442 68.8017 26.9768 68.8017 27.2094 68.8017C27.2222 69.6027 27.2094 70.4033 27.1706 71.2035C26.9598 71.2767 26.7402 71.3025 26.5117 71.281C26.5117 70.9453 26.5117 70.6095 26.5117 70.2738C26.2533 70.2738 25.9949 70.2738 25.7365 70.2738C25.7365 70.6095 25.7365 70.9453 25.7365 71.281C25.5297 71.281 25.3231 71.281 25.1163 71.281C25.1163 70.4545 25.1163 69.6281 25.1163 68.8017Z" fill="white"/>
<path opacity="0.889" fill-rule="evenodd" clip-rule="evenodd" d="M30.0775 68.8016C30.3876 68.8016 30.6977 68.8016 31.0077 68.8016C31.0857 69.1908 31.1761 69.5781 31.2791 69.9638C31.3954 69.6019 31.5117 69.2403 31.6279 68.8791C31.9075 68.8025 32.1918 68.7766 32.4806 68.8016C32.4806 69.6281 32.4806 70.4545 32.4806 71.281C32.2998 71.281 32.1188 71.281 31.938 71.281C31.9814 69.8948 31.8909 69.869 31.6667 71.2035C31.4297 71.2772 31.1843 71.303 30.9302 71.281C30.753 70.0556 30.6755 70.0556 30.6977 71.281C30.4909 71.281 30.2843 71.281 30.0775 71.281C30.0775 70.4545 30.0775 69.6281 30.0775 68.8016Z" fill="white"/>
<path opacity="0.82" fill-rule="evenodd" clip-rule="evenodd" d="M32.7906 68.8017C33.4366 68.8017 34.0827 68.8017 34.7286 68.8017C34.7286 68.9824 34.7286 69.1633 34.7286 69.344C34.3152 69.344 33.9017 69.344 33.4883 69.344C33.4883 69.4473 33.4883 69.5507 33.4883 69.6539C33.8759 69.6539 34.2635 69.6539 34.6511 69.6539C34.6511 69.8606 34.6511 70.0671 34.6511 70.2738C34.2635 70.2738 33.8759 70.2738 33.4883 70.2738C33.4883 70.4287 33.4883 70.5837 33.4883 70.7386C33.9276 70.7386 34.3669 70.7386 34.8062 70.7386C34.8062 70.9194 34.8062 71.1002 34.8062 71.281C34.1343 71.281 33.4625 71.281 32.7906 71.281C32.7906 70.4545 32.7906 69.6281 32.7906 68.8017Z" fill="white"/>
<path opacity="0.894" fill-rule="evenodd" clip-rule="evenodd" d="M35.0388 68.8017C35.2456 68.8017 35.4522 68.8017 35.659 68.8017C35.659 69.6281 35.659 70.4545 35.659 71.281C35.4522 71.281 35.2456 71.281 35.0388 71.281C35.0388 70.4545 35.0388 69.6281 35.0388 68.8017Z" fill="white"/>
<path opacity="0.861" fill-rule="evenodd" clip-rule="evenodd" d="M35.969 68.8017C36.1773 68.789 36.384 68.8019 36.5891 68.8404C36.8313 69.1824 37.0639 69.531 37.2868 69.8864C37.3638 69.5284 37.3897 69.1669 37.3643 68.8017C37.5711 68.8017 37.7778 68.8017 37.9845 68.8017C37.9845 69.6281 37.9845 70.4545 37.9845 71.281C37.7464 71.3056 37.5138 71.2798 37.2868 71.2035C37.0518 70.8521 36.8322 70.4906 36.6279 70.1188C36.5892 70.5054 36.5763 70.8927 36.5891 71.281C36.3824 71.281 36.1757 71.281 35.969 71.281C35.969 70.4545 35.969 69.6281 35.969 68.8017Z" fill="white"/>
<path opacity="0.794" fill-rule="evenodd" clip-rule="evenodd" d="M38.2946 68.8017C38.5271 68.8017 38.7597 68.8017 38.9922 68.8017C38.9922 69.6281 38.9922 70.4545 38.9922 71.281C38.7597 71.281 38.5271 71.281 38.2946 71.281C38.2946 70.4545 38.2946 69.6281 38.2946 68.8017Z" fill="white"/>
<path opacity="0.884" fill-rule="evenodd" clip-rule="evenodd" d="M21.4729 75C21.1111 75 20.7494 75 20.3876 75C20.1858 74.8373 19.992 74.6565 19.8062 74.4576C19.7545 73.967 19.7545 73.4762 19.8062 72.9855C20.3693 72.341 21.0282 72.2248 21.783 72.6369C21.9326 72.8118 22.0489 73.0055 22.1318 73.218C22.3423 73.9967 22.1227 74.5908 21.4729 75ZM20.5427 73.063C21.1465 72.8899 21.4565 73.1094 21.4729 73.7216C21.4526 74.3334 21.1425 74.5529 20.5427 74.3802C20.4393 73.9411 20.4393 73.5021 20.5427 73.063Z" fill="white"/>
<path opacity="0.866" fill-rule="evenodd" clip-rule="evenodd" d="M44.0309 75C43.6433 75 43.2557 75 42.8682 75C42.5093 74.7992 42.3543 74.4893 42.403 74.0702C42.6113 74.0575 42.8181 74.0705 43.0232 74.109C43.0881 74.1873 43.1139 74.2777 43.1007 74.3802C43.309 74.3929 43.5157 74.3799 43.7209 74.3414C43.7563 74.3093 43.7822 74.2706 43.7984 74.2252C43.3994 74.0727 43.0118 73.892 42.6356 73.6828C42.2368 72.8663 42.4952 72.4272 43.4108 72.3657C43.7637 72.3761 44.0608 72.5052 44.3023 72.7531C44.4582 73.185 44.3161 73.4046 43.8759 73.4117C44.5193 73.6973 44.6614 74.1493 44.3023 74.7676C44.2135 74.8556 44.123 74.933 44.0309 75ZM43.1782 73.063C43.4626 73.0008 43.6694 73.0912 43.7984 73.3342C43.5644 73.3211 43.3318 73.2694 43.1007 73.1792C43.1438 73.1496 43.1696 73.1108 43.1782 73.063Z" fill="white"/>
<path opacity="0.89" fill-rule="evenodd" clip-rule="evenodd" d="M3.02323 75C2.81651 75 2.6098 75 2.40308 75C2.40308 74.1477 2.40308 73.2954 2.40308 72.4432C2.6098 72.4432 2.81651 72.4432 3.02323 72.4432C3.02323 73.2954 3.02323 74.1477 3.02323 75Z" fill="white"/>
<path opacity="0.794" fill-rule="evenodd" clip-rule="evenodd" d="M5.4264 75C5.19384 75 4.96128 75 4.72872 75C4.5303 74.6299 4.31066 74.2683 4.06981 73.9153C3.95844 74.2618 3.91968 74.6234 3.95353 75C3.74681 75 3.54009 75 3.33337 75C3.33337 74.1477 3.33337 73.2955 3.33337 72.4432C3.57151 72.4186 3.80406 72.4444 4.03105 72.5207C4.27653 72.9339 4.522 73.3471 4.76748 73.7603C4.8062 73.322 4.81912 72.883 4.80624 72.4432C5.01296 72.4432 5.21968 72.4432 5.4264 72.4432C5.4264 73.2955 5.4264 74.1477 5.4264 75Z" fill="white"/>
<path opacity="0.818" fill-rule="evenodd" clip-rule="evenodd" d="M6.89925 75C6.69253 75 6.48582 75 6.2791 75C6.2791 74.3544 6.2791 73.7086 6.2791 73.063C6.04654 73.063 5.81398 73.063 5.58142 73.063C5.58142 72.8564 5.58142 72.6498 5.58142 72.4432C6.25326 72.4432 6.92509 72.4432 7.59692 72.4432C7.59692 72.6498 7.59692 72.8564 7.59692 73.063C7.36437 73.063 7.13181 73.063 6.89925 73.063C6.89925 73.7086 6.89925 74.3544 6.89925 75Z" fill="white"/>
<path opacity="0.794" fill-rule="evenodd" clip-rule="evenodd" d="M9.68994 75C9.04397 75 8.39792 75 7.75195 75C7.75195 74.1477 7.75195 73.2954 7.75195 72.4432C8.39792 72.4432 9.04397 72.4432 9.68994 72.4432C9.68994 72.6498 9.68994 72.8564 9.68994 73.063C9.25064 73.063 8.81141 73.063 8.37211 73.063C8.37211 73.1663 8.37211 73.2696 8.37211 73.3729C8.78552 73.3729 9.19901 73.3729 9.61242 73.3729C9.61242 73.5537 9.61242 73.7345 9.61242 73.9153C9.19901 73.9153 8.78552 73.9153 8.37211 73.9153C8.37211 74.0702 8.37211 74.2252 8.37211 74.3802C8.81141 74.3802 9.25064 74.3802 9.68994 74.3802C9.68994 74.5868 9.68994 74.7934 9.68994 75Z" fill="white"/>
<path opacity="0.871" fill-rule="evenodd" clip-rule="evenodd" d="M12.2481 75C11.9897 75 11.7312 75 11.4729 75C11.2733 74.6197 11.0149 74.2839 10.6977 73.9928C10.6208 74.3246 10.5949 74.6603 10.6202 75C10.4134 75 10.2067 75 10 75C10 74.1477 10 73.2955 10 72.4432C10.5174 72.4303 11.0343 72.4432 11.5504 72.4819C12.0928 72.7251 12.235 73.1255 11.9767 73.6829C11.8674 73.7826 11.7512 73.873 11.6279 73.954C11.9542 74.2392 12.1609 74.5879 12.2481 75ZM10.6202 73.063C10.8785 73.063 11.137 73.063 11.3953 73.063C11.4157 73.1775 11.3898 73.2808 11.3178 73.3729C11.0914 73.4432 10.8588 73.469 10.6202 73.4504C10.6202 73.3213 10.6202 73.1922 10.6202 73.063Z" fill="white"/>
<path opacity="0.894" fill-rule="evenodd" clip-rule="evenodd" d="M14.3411 75C14.1343 75 13.9276 75 13.7209 75C13.5407 74.6399 13.321 74.3042 13.062 73.9928C12.9904 74.3251 12.9517 74.6609 12.9457 75C12.7649 75 12.5839 75 12.4031 75C12.4031 74.1477 12.4031 73.2954 12.4031 72.4432C12.5858 72.4305 12.7666 72.4434 12.9457 72.4819C13.2394 72.8233 13.4849 73.1977 13.6821 73.6054C13.7401 73.2194 13.7789 72.832 13.7984 72.4432C13.9793 72.4432 14.1602 72.4432 14.3411 72.4432C14.3411 73.2954 14.3411 74.1477 14.3411 75Z" fill="white"/>
<path opacity="0.876" fill-rule="evenodd" clip-rule="evenodd" d="M17.0542 75C16.8217 75 16.5891 75 16.3566 75C16.1871 74.4765 15.8512 74.3345 15.3488 74.5739C15.2741 74.7075 15.2224 74.8496 15.1938 75C14.9612 75 14.7287 75 14.4961 75C14.7058 74.1262 15.0159 73.2869 15.4263 72.4819C15.6631 72.4183 15.8956 72.4312 16.124 72.5207C16.4787 73.3326 16.7888 74.1591 17.0542 75ZM15.6589 73.5279C15.8704 73.6549 15.8962 73.784 15.7364 73.9153C15.6847 73.8895 15.6331 73.8636 15.5814 73.8378C15.6392 73.7421 15.665 73.6387 15.6589 73.5279Z" fill="white"/>
<path opacity="0.744" fill-rule="evenodd" clip-rule="evenodd" d="M18.062 75C17.8294 75 17.5969 75 17.3643 75C17.3643 74.3544 17.3643 73.7086 17.3643 73.063C17.1317 73.063 16.8992 73.063 16.6666 73.063C16.6666 72.8564 16.6666 72.6498 16.6666 72.4432C17.3643 72.4432 18.062 72.4432 18.7596 72.4432C18.7596 72.6498 18.7596 72.8564 18.7596 73.063C18.5271 73.063 18.2945 73.063 18.062 73.063C18.062 73.7086 18.062 74.3544 18.062 75Z" fill="white"/>
<path opacity="0.889" fill-rule="evenodd" clip-rule="evenodd" d="M19.4573 75C19.2506 75 19.0439 75 18.8372 75C18.8372 74.1477 18.8372 73.2954 18.8372 72.4432C19.0439 72.4432 19.2506 72.4432 19.4573 72.4432C19.4573 73.2954 19.4573 74.1477 19.4573 75Z" fill="white"/>
<path opacity="0.854" fill-rule="evenodd" clip-rule="evenodd" d="M24.4186 75C24.186 75 23.9535 75 23.7209 75C23.5211 74.6053 23.3014 74.2179 23.062 73.8378C23.045 74.2315 23.0063 74.6189 22.9457 75C22.7649 75 22.5839 75 22.4031 75C22.4031 74.1477 22.4031 73.2954 22.4031 72.4432C22.5858 72.4305 22.7666 72.4434 22.9457 72.4819C23.2604 72.8399 23.5059 73.2402 23.6821 73.6828C23.767 73.2737 23.8058 72.8605 23.7984 72.4432C24.0052 72.4432 24.2118 72.4432 24.4186 72.4432C24.4186 73.2954 24.4186 74.1477 24.4186 75Z" fill="white"/>
<path opacity="0.882" fill-rule="evenodd" clip-rule="evenodd" d="M27.0542 75C26.8217 75 26.5891 75 26.3566 75C26.2739 74.8295 26.2222 74.6486 26.2015 74.4576C25.9173 74.4576 25.6331 74.4576 25.3488 74.4576C25.3281 74.6486 25.2764 74.8295 25.1938 75C24.9612 75 24.7287 75 24.4961 75C24.7593 74.1597 25.0693 73.3332 25.4263 72.5207C25.6751 72.4209 25.9205 72.4209 26.1628 72.5207C26.5146 73.3306 26.8118 74.157 27.0542 75ZM25.7364 73.5279C25.9605 73.7571 25.9088 73.8733 25.5814 73.8766C25.6408 73.7627 25.6925 73.6464 25.7364 73.5279Z" fill="white"/>
<path opacity="0.844" fill-rule="evenodd" clip-rule="evenodd" d="M31.6279 75C31.2403 75 30.8527 75 30.4651 75C30.3617 74.889 30.2455 74.7856 30.1162 74.6901C30.0084 73.9463 29.9697 73.1973 30 72.4432C30.2325 72.4432 30.4651 72.4432 30.6976 72.4432C30.6848 73.0378 30.6976 73.6318 30.7364 74.2252C30.9019 74.363 31.0957 74.4146 31.3178 74.3802C31.3823 73.7367 31.4081 73.0911 31.3953 72.4432C31.6279 72.4432 31.8604 72.4432 32.093 72.4432C32.1059 73.1152 32.093 73.7867 32.0542 74.4576C31.9793 74.6995 31.8372 74.8802 31.6279 75Z" fill="white"/>
<path opacity="0.841" fill-rule="evenodd" clip-rule="evenodd" d="M33.0232 75C32.8165 75 32.6098 75 32.4031 75C32.4031 74.1477 32.4031 73.2955 32.4031 72.4432C32.6114 72.4305 32.8181 72.4434 33.0232 72.4819C33.3639 72.8915 33.6352 73.3434 33.8372 73.8378C33.8759 73.3995 33.8888 72.9604 33.8759 72.5207C34.0568 72.5207 34.2377 72.5207 34.4186 72.5207C34.4186 73.3213 34.4186 74.1219 34.4186 74.9225C34.2359 74.9352 34.055 74.9223 33.8759 74.8838C33.6046 74.5093 33.3333 74.1348 33.062 73.7603C33.0233 74.1728 33.0104 74.586 33.0232 75Z" fill="white"/>
<path opacity="0.889" fill-rule="evenodd" clip-rule="evenodd" d="M35.4263 75C35.2196 75 35.0129 75 34.8062 75C34.8062 74.1477 34.8062 73.2954 34.8062 72.4432C35.0129 72.4432 35.2196 72.4432 35.4263 72.4432C35.4263 73.2954 35.4263 74.1477 35.4263 75Z" fill="white"/>
<path opacity="0.866" fill-rule="evenodd" clip-rule="evenodd" d="M36.9768 75C36.7442 75 36.5117 75 36.2791 75C35.9575 74.1652 35.6992 73.3129 35.5039 72.4432C35.7365 72.4432 35.969 72.4432 36.2016 72.4432C36.3196 72.9136 36.4618 73.3785 36.6279 73.8378C36.818 73.4104 36.9859 72.9714 37.1318 72.5207C37.3588 72.4444 37.5913 72.4186 37.8295 72.4432C37.623 73.3206 37.3387 74.1729 36.9768 75Z" fill="white"/>
<path opacity="0.855" fill-rule="evenodd" clip-rule="evenodd" d="M42.4031 75C42.1447 75 41.8863 75 41.6279 75C41.4288 74.5999 41.1575 74.2642 40.8139 73.9928C40.7753 74.3276 40.7623 74.6633 40.7752 75C40.5426 75 40.3101 75 40.0775 75C40.0775 74.1477 40.0775 73.2955 40.0775 72.4432C40.6208 72.4303 41.1634 72.4432 41.7054 72.4819C41.8874 72.5087 42.0295 72.5992 42.1318 72.7531C42.1835 73.063 42.1835 73.3729 42.1318 73.6829C42.0377 73.8029 41.9214 73.8932 41.7829 73.954C42.1053 74.2368 42.3121 74.5854 42.4031 75ZM40.7752 73.063C41.0077 73.063 41.2403 73.063 41.4729 73.063C41.4729 73.1663 41.4729 73.2697 41.4729 73.3729C41.2438 73.424 41.0112 73.4498 40.7752 73.4504C40.7752 73.3213 40.7752 73.1922 40.7752 73.063Z" fill="white"/>
<path opacity="0.791" fill-rule="evenodd" clip-rule="evenodd" d="M45.3488 75C45.1162 75 44.8837 75 44.6511 75C44.6511 74.1477 44.6511 73.2954 44.6511 72.4432C44.8837 72.4432 45.1162 72.4432 45.3488 72.4432C45.3488 73.2954 45.3488 74.1477 45.3488 75Z" fill="white"/>
<path opacity="0.855" fill-rule="evenodd" clip-rule="evenodd" d="M48.8372 75C48.6564 75 48.4755 75 48.2946 75C48.2813 74.6362 48.2426 74.2746 48.1783 73.9153C47.9458 73.5279 47.7132 73.1405 47.4807 72.7531C47.4427 72.8533 47.4297 72.9566 47.4419 73.063C47.2093 73.063 46.9768 73.063 46.7442 73.063C46.7442 73.7087 46.7442 74.3544 46.7442 75C46.5375 75 46.3308 75 46.1241 75C46.1241 74.3544 46.1241 73.7087 46.1241 73.063C45.9173 73.063 45.7107 73.063 45.5039 73.063C45.5039 72.8564 45.5039 72.6498 45.5039 72.4432C46.3828 72.4303 47.2614 72.4432 48.1396 72.4819C48.311 72.7083 48.4531 72.9536 48.5659 73.218C48.7469 73.0114 48.8891 72.779 48.9923 72.5207C49.2456 72.4442 49.5041 72.4184 49.7675 72.4432C49.7216 72.6904 49.6311 72.9229 49.4962 73.1405C48.9921 73.66 48.7724 74.2798 48.8372 75Z" fill="white"/>
<path opacity="0.813" fill-rule="evenodd" clip-rule="evenodd" d="M28.9148 75C28.3204 75 27.7262 75 27.1318 75C27.1318 74.1735 27.1318 73.3471 27.1318 72.5207C27.3644 72.5207 27.597 72.5207 27.8295 72.5207C27.8295 73.1405 27.8295 73.7603 27.8295 74.3802C28.1913 74.3802 28.553 74.3802 28.9148 74.3802C28.9148 74.5868 28.9148 74.7934 28.9148 75Z" fill="white"/>
<path opacity="0.815" fill-rule="evenodd" clip-rule="evenodd" d="M37.907 72.5207C38.5271 72.5207 39.1473 72.5207 39.7674 72.5207C39.7674 72.7014 39.7674 72.8823 39.7674 73.063C39.3799 73.063 38.9923 73.063 38.6047 73.063C38.6047 73.1663 38.6047 73.2697 38.6047 73.3729C38.9923 73.3729 39.3799 73.3729 39.7674 73.3729C39.7674 73.5537 39.7674 73.7345 39.7674 73.9153C39.3799 73.9153 38.9923 73.9153 38.6047 73.9153C38.6047 74.0702 38.6047 74.2252 38.6047 74.3802C39.0181 74.3802 39.4316 74.3802 39.845 74.3802C39.845 74.5609 39.845 74.7418 39.845 74.9225C39.199 74.9225 38.553 74.9225 37.907 74.9225C37.907 74.1219 37.907 73.3213 37.907 72.5207Z" fill="white"/>
</g>
<defs>
<clipPath id="clip0_33_315">
<rect width="50" height="75" fill="white"/>
</clipPath>
</defs>
</svg>
