<svg width="190" height="69" viewBox="0 0 190 69" fill="none" xmlns="http://www.w3.org/2000/svg">
<g clip-path="url(#clip0_33_264)">
<path opacity="0.868" fill-rule="evenodd" clip-rule="evenodd" d="M35.4961 0.476746C35.9872 0.476746 36.4779 0.476746 36.969 0.476746C38.9123 3.01273 38.4704 4.97656 35.6434 6.36822C34.5279 5.93944 33.6933 5.203 33.1395 4.15892C33.7425 2.80314 34.5281 1.57575 35.4961 0.476746Z" fill="white"/>
<path opacity="0.797" fill-rule="evenodd" clip-rule="evenodd" d="M163.046 6.07364C163.547 6.02645 164.038 6.07556 164.519 6.22093C164.925 6.72565 165.416 7.11841 165.992 7.39922C166.374 8.5146 166.374 9.64379 165.992 10.7868C164.856 11.484 163.875 12.3187 163.046 13.2907C163.39 13.6344 163.734 13.978 164.077 14.3217C164.752 13.4144 165.39 12.4816 165.992 11.5233C167.472 11.729 168.257 12.6127 168.349 14.1744C167.955 17.198 166.482 18.0326 163.93 16.6783C163.214 17.3985 162.429 17.9876 161.574 18.4457C160.607 18.3306 159.772 17.9379 159.07 17.2674C159.034 16.7759 159.132 16.2849 159.364 15.7946C160.003 14.7145 160.641 13.6344 161.279 12.5543C161.217 12.3816 161.119 12.2344 160.984 12.1124C161.537 11.0833 161.734 9.95412 161.574 8.72481C162.13 8.78475 162.572 8.58836 162.899 8.13566C163.046 7.45525 163.094 6.76789 163.046 6.07364Z" fill="white"/>
<path opacity="0.872" fill-rule="evenodd" clip-rule="evenodd" d="M180.426 8.13566C180.72 8.12685 180.917 8.27414 181.016 8.57752C179.538 12.2676 177.427 15.5569 174.682 18.4457C171.531 21.6949 168.291 24.837 164.961 27.8721C164.576 28.5029 164.134 29.092 163.636 29.6395C165.008 30.4204 165.597 31.5987 165.403 33.1744C165.198 35.2046 164.609 37.1193 163.636 38.9186C164.819 38.6114 165.703 37.8749 166.287 36.7093C166.959 36.5075 167.646 36.4586 168.349 36.562C168.938 36.3655 169.331 35.9729 169.527 35.3837C172.85 34.9056 174.274 32.9909 173.799 29.6395C174.29 28.5594 174.78 27.4793 175.271 26.3992C175.474 26.1469 175.72 25.9505 176.008 25.8101C176.35 27.4707 176.4 29.14 176.155 30.8178C175.425 31.8851 175.032 33.0634 174.977 34.3527C174.351 35.3513 173.614 36.2842 172.768 37.1512C169.791 38.394 166.943 39.8668 164.225 41.5698C162.592 41.9934 161.021 42.5825 159.512 43.3372C157.142 43.9944 155.62 43.1599 154.946 40.8333C155.154 34.2069 156.529 27.8244 159.07 21.686C159.266 21.4897 159.462 21.2933 159.659 21.0969C159.941 21.5974 160.088 22.1375 160.101 22.7171C159.746 24.7859 159.353 26.8479 158.923 28.9031C159.021 29.1486 159.119 29.3941 159.217 29.6395C164.407 25.0885 169.464 20.3753 174.388 15.5C176.262 12.9278 178.275 10.473 180.426 8.13566ZM159.217 34.3527C160.691 34.2305 161.918 34.7215 162.899 35.8256C163.085 36.5334 162.839 37.0737 162.163 37.4457C160.672 38.3462 159.199 38.3462 157.744 37.4457C157.112 35.8712 157.603 34.8402 159.217 34.3527Z" fill="white"/>
<path opacity="0.629" fill-rule="evenodd" clip-rule="evenodd" d="M-0.147339 13.438C-0.147339 12.3579 -0.147339 11.2778 -0.147339 10.1977C0.229548 9.71949 0.622311 9.22853 1.03096 8.72481C1.249 9.71016 1.15081 10.6921 0.736382 11.6705C1.02794 12.7325 1.22433 13.8126 1.32553 14.9109C1.03096 14.9109 0.736382 14.9109 0.441808 14.9109C0.470659 14.3061 0.274275 13.8152 -0.147339 13.438Z" fill="white"/>
<path opacity="0.664" fill-rule="evenodd" clip-rule="evenodd" d="M7.51165 8.7248C7.85778 8.66029 8.15235 8.75847 8.39538 9.01938C9.3606 10.6196 9.50789 12.2889 8.83724 14.0271C8.50307 14.7636 7.96303 15.1073 7.21708 15.0581C7.95561 13.6183 8.20107 12.0964 7.95351 10.4922C7.92512 12.0592 7.28687 13.2866 6.03879 14.1744C5.52069 14.4093 5.02972 14.3603 4.56592 14.0271C5.16396 13.4065 5.80221 12.8173 6.48065 12.2597C6.64791 11.2569 7.08977 10.4223 7.80623 9.75581C7.66215 9.42044 7.56394 9.07676 7.51165 8.7248Z" fill="white"/>
<path opacity="0.812" fill-rule="evenodd" clip-rule="evenodd" d="M146.845 9.01938C147.336 9.01938 147.827 9.01938 148.318 9.01938C148.326 9.6328 148.13 10.1728 147.729 10.6395C145.517 11.8929 143.258 13.0712 140.954 14.1744C139.841 14.7966 138.81 15.533 137.861 16.3837C138.358 16.9643 138.702 17.7007 138.892 18.593C138.761 19.7493 138.172 20.4857 137.124 20.8023C136.95 20.0284 136.852 19.2429 136.83 18.4457C136.437 18.4457 136.044 18.4457 135.651 18.4457C135.353 16.7398 135.844 15.316 137.124 14.1744C140.383 12.4475 143.623 10.7292 146.845 9.01938Z" fill="white"/>
<path opacity="0.912" fill-rule="evenodd" clip-rule="evenodd" d="M114.736 40.2442C114.281 41.0395 113.594 41.5795 112.674 41.8643C109.603 42.9269 106.46 43.7125 103.248 44.2209C88.9868 46.4812 74.6508 47.2668 60.2403 46.5775C55.5324 46.4155 51.0157 45.4334 46.6899 43.6318C45.8394 43.1284 45.4465 42.3919 45.5116 41.4225C46.0884 38.731 47.4631 36.5217 49.6356 34.7946C52.3536 33.0916 55.2013 31.6188 58.1782 30.376C59.7024 29.1428 60.8318 27.6208 61.5658 25.8101C62.2987 23.5653 62.9863 21.3069 63.6279 19.0349C63.9018 18.1919 64.3929 17.5046 65.1007 16.9729C65.3461 17.2183 65.5918 17.4638 65.8372 17.7093C64.6106 21.2891 64.0706 24.9713 64.217 28.7558C65.2047 30.6523 66.2849 30.6523 67.4573 28.7558C68.0898 25.3105 68.7773 21.8738 69.5193 18.4457C69.8357 17.3208 70.3757 16.3389 71.1395 15.5C71.2376 15.8928 71.336 16.2855 71.4341 16.6783C70.8962 19.5078 70.6508 22.3553 70.6976 25.2209C71.0953 26.601 71.9298 27.632 73.2015 28.3139C88.0704 32.2182 102.014 30.0581 115.031 21.8333C115.779 21.1839 116.418 20.4474 116.946 19.624C117.097 16.6794 117.686 13.8319 118.713 11.0814C119.093 10.4062 119.584 9.81708 120.186 9.31395C120.391 12.7449 119.949 16.0834 118.86 19.3295C118.987 20.1976 119.429 20.885 120.186 21.3915C120.719 23.2689 120.13 24.6436 118.419 25.5155C117.421 24.6958 116.292 24.3521 115.031 24.4845C111.095 27.9645 106.48 30.6157 101.186 32.438C98.9016 33.0516 96.6431 33.7391 94.4108 34.5C89.9383 34.9065 85.4708 35.3484 81.0077 35.8256C77.046 35.7219 73.3638 34.6909 69.9612 32.7326C69.3862 32.1216 68.8462 31.4833 68.341 30.8178C67.5913 32.3676 66.6584 33.7913 65.5426 35.0891C62.8714 36.0842 61.3493 35.1513 60.9767 32.2907C60.7558 32.1063 60.5101 31.959 60.2403 31.8488C60.7846 31.409 61.03 30.8691 60.9767 30.2287C59.9477 31.5522 58.8184 32.7794 57.5891 33.9108C55.4741 34.8122 53.3137 35.5979 51.1085 36.2674C48.5578 37.1226 48.4597 38.1044 50.8139 39.2132C54.7618 40.3384 58.7877 41.0257 62.8914 41.2752C79.7581 42.6349 96.4996 41.702 113.116 38.4767C114.32 38.4532 114.86 39.0423 114.736 40.2442Z" fill="white"/>
<path opacity="0.809" fill-rule="evenodd" clip-rule="evenodd" d="M3.09307 10.1977C4.37058 10.493 4.81244 11.2785 4.41865 12.5543C4.27793 14.1181 3.44329 14.7072 1.91477 14.3217C1.91025 13.1258 2.05754 11.9475 2.35663 10.7868C2.64965 10.6201 2.89512 10.4237 3.09307 10.1977Z" fill="white"/>
<path opacity="0.859" fill-rule="evenodd" clip-rule="evenodd" d="M17.2326 10.1977C20.3702 12.3762 20.3702 14.5364 17.2326 16.6783C16.2059 16.1915 15.4204 15.455 14.876 14.469C15.4761 12.9235 16.2617 11.4997 17.2326 10.1977Z" fill="white"/>
<path opacity="0.875" fill-rule="evenodd" clip-rule="evenodd" d="M31.9612 11.6705C34.035 11.645 36.0971 11.7923 38.1473 12.1124C39.0649 13.4803 38.8684 14.6586 37.5581 15.6473C36.3142 16.22 35.0378 16.7109 33.7287 17.1202C32.8441 17.4637 32.0584 17.9546 31.3721 18.593C32.7198 19.816 32.769 21.1416 31.5194 22.5698C30.6086 23.4304 29.5775 24.1178 28.4264 24.6318C27.4792 24.1978 26.4973 24.0506 25.4806 24.1899C24.5694 24.9633 23.6365 25.6998 22.6822 26.3992C20.3106 24.771 18.2485 25.1638 16.4961 27.5775C16.2935 27.8225 16.3426 28.0189 16.6434 28.1667C18.2238 28.6167 19.1075 29.6478 19.2946 31.2597C18.7109 36.2595 16.4525 40.2854 12.5194 43.3372C9.73171 44.9582 6.88415 45.1547 3.97674 43.9264C2.98429 43.2297 2.34606 42.2968 2.06201 41.1279C2.0895 34.794 4.10241 29.1971 8.10077 24.3372C8.39535 24.4354 8.59174 24.6318 8.68992 24.9264C7.12028 27.7704 5.7947 30.7162 4.71317 33.7636C3.76535 36.5853 4.69818 38.4019 7.51162 39.2132C10.9401 39.8665 13.7385 38.8355 15.907 36.1202C16.4675 35.5484 16.713 34.8611 16.6434 34.0581C13.5695 33.9824 12.5385 32.5096 13.5504 29.6395C14.8226 25.3709 17.6211 22.8179 21.9457 21.9806C22.7319 22.3303 23.5174 22.5757 24.3023 22.7171C24.8676 21.074 25.5058 19.4538 26.2171 17.8566C26.5892 17.2359 27.1293 16.9413 27.8372 16.9729C27.6947 17.9443 27.9893 18.7298 28.7209 19.3295C29.8047 17.0188 31.5721 15.4968 34.0233 14.7636C32.4311 13.9394 31.1547 14.234 30.1938 15.6473C29.7684 15.8772 29.3758 15.8281 29.0155 15.5C29.5634 13.874 30.5455 12.5976 31.9612 11.6705Z" fill="white"/>
<path opacity="0.849" fill-rule="evenodd" clip-rule="evenodd" d="M128.876 12.2597C129.171 12.2597 129.465 12.2597 129.76 12.2597C129.818 16.7227 129.081 21.0432 127.55 25.2209C127.144 25.7257 126.653 26.1184 126.077 26.3992C125.786 26.1254 125.638 25.7817 125.636 25.3682C126.124 22.887 126.468 20.3831 126.667 17.8566C127.087 15.8573 127.823 13.9917 128.876 12.2597Z" fill="white"/>
<path opacity="0.809" fill-rule="evenodd" clip-rule="evenodd" d="M56.4108 14.3217C56.7054 14.3217 56.9999 14.3217 57.2945 14.3217C56.8809 18.3052 56.1445 22.2328 55.0852 26.1047C54.6887 27.0904 54.0015 27.7777 53.0232 28.1667C53.2488 23.4325 54.3779 18.8175 56.4108 14.3217Z" fill="white"/>
<path opacity="0.683" fill-rule="evenodd" clip-rule="evenodd" d="M171.295 14.6163C171.604 14.5722 171.899 14.6213 172.178 14.7636C170.94 17.377 169.075 19.439 166.581 20.9496C166.189 21.146 165.796 21.146 165.403 20.9496C167.535 18.9655 169.499 16.8544 171.295 14.6163Z" fill="white"/>
<path opacity="0.878" fill-rule="evenodd" clip-rule="evenodd" d="M44.9225 16.0891C45.1043 16.1218 45.2516 16.2199 45.3644 16.3837C45.1782 20.1542 44.638 23.8855 43.7442 27.5775C43.804 28.0806 44.0494 28.4733 44.4807 28.7558C44.8613 28.2407 45.2047 27.7007 45.5117 27.1357C47.1421 26.225 47.9278 26.6668 47.8683 28.4612C47.6971 30.8169 46.7153 32.7317 44.9225 34.2054C42.2849 34.857 41.0082 33.826 41.0931 31.1124C41.3114 25.8204 42.5877 20.8127 44.9225 16.0891Z" fill="white"/>
<path opacity="0.855" fill-rule="evenodd" clip-rule="evenodd" d="M179.248 16.9729C182.117 17.5078 182.854 19.0789 181.457 21.686C179.653 23.7728 178.229 23.5764 177.186 21.0969C177.616 19.5884 178.304 18.2137 179.248 16.9729Z" fill="white"/>
<path opacity="0.887" fill-rule="evenodd" clip-rule="evenodd" d="M114.736 40.2442C115.24 37.9453 115.976 35.6871 116.946 33.469C118.588 31.3101 119.078 31.5062 118.419 34.0581C114.617 41.9386 117.023 45.2278 125.636 43.9264C128.623 42.903 130.636 40.8902 131.674 37.8876C132.697 35.133 133.188 32.2857 133.147 29.345C133.393 29.0995 133.638 28.854 133.884 28.6085C135.178 28.5193 136.454 28.3229 137.713 28.0194C138.813 26.1967 139.746 24.282 140.512 22.2752C140.918 21.7705 141.409 21.3777 141.985 21.0969C142.104 22.1906 142.104 23.2707 141.985 24.3372C142.221 24.7215 142.565 24.9179 143.016 24.9264C143.627 24.503 144.315 24.3066 145.078 24.3372C145.01 26.3881 144.322 28.2046 143.016 29.7868C141.568 30.5489 140.341 30.3032 139.333 29.0504C138.597 29.7868 137.86 30.5233 137.124 31.2597C136.581 31.592 135.991 31.7393 135.357 31.7016C134.387 36.7229 132.473 41.3379 129.612 45.5465C125.912 49.9978 121.444 51.0288 116.209 48.6395C115.641 47.9744 115.199 47.238 114.884 46.4302C114.736 44.3706 114.688 42.3086 114.736 40.2442Z" fill="white"/>
<path opacity="0.871" fill-rule="evenodd" clip-rule="evenodd" d="M148.907 24.6318C152.012 24.7502 152.847 26.2231 151.411 29.0504C150.22 30.0754 149.042 29.9773 147.876 28.7558C147.589 27.2132 147.933 25.8385 148.907 24.6318Z" fill="white"/>
<path opacity="0.82" fill-rule="evenodd" clip-rule="evenodd" d="M181.015 26.1047C181.53 26.3254 181.824 26.7182 181.899 27.2829C181.056 31.1757 180.417 35.1036 179.984 39.0659C179.815 40.8831 178.981 42.2579 177.481 43.1899C177.752 38.9931 178.292 34.771 179.101 30.5233C179.827 29.0782 180.465 27.6054 181.015 26.1047Z" fill="white"/>
<path opacity="0.859" fill-rule="evenodd" clip-rule="evenodd" d="M34.0232 27.2829C35.3726 27.113 36.6001 27.4076 37.7054 28.1667C38.3022 30.371 37.6638 32.1873 35.7906 33.6163C33.4535 34.2679 31.0969 34.857 28.7209 35.3837C25.7577 36.7364 24.0394 39.0441 23.5658 42.3062C22.0286 49.0938 21.1449 55.9671 20.9147 62.9264C20.9017 64.2938 20.4599 65.4721 19.5891 66.4612C19.2562 59.3485 19.6981 52.2787 20.9147 45.2519C21.7186 40.5514 23.7315 36.4763 26.9534 33.0271C28.4758 32.02 30.047 31.0874 31.6666 30.2287C32.365 29.1417 33.1507 28.1598 34.0232 27.2829Z" fill="white"/>
<path opacity="0.878" fill-rule="evenodd" clip-rule="evenodd" d="M124.457 30.5233C127.614 31.1996 128.645 33.0651 127.55 36.1202C126.689 37.464 125.56 37.8078 124.163 37.1512C123.459 36.5473 122.87 35.8598 122.395 35.0891C123.127 33.5783 123.814 32.0562 124.457 30.5233Z" fill="white"/>
<path opacity="0.872" fill-rule="evenodd" clip-rule="evenodd" d="M189.853 33.1744C189.853 34.7454 189.853 36.3166 189.853 37.8876C189.091 39.3569 188.207 40.7806 187.202 42.1589C186.102 42.7772 184.924 43.121 183.667 43.1899C183.664 42.6573 183.811 42.1663 184.109 41.7171C185.289 41.0048 186.32 40.1211 187.202 39.0659C186.83 38.2517 186.29 37.5645 185.581 37.0039C185.324 36.5994 185.176 36.1576 185.14 35.6783C185.654 34.206 186.293 32.7821 187.054 31.407C187.363 31.1074 187.707 31.0582 188.085 31.2597C188.743 31.8674 189.332 32.5054 189.853 33.1744Z" fill="white"/>
<path opacity="0.882" fill-rule="evenodd" clip-rule="evenodd" d="M147.434 33.7636C149.1 33.3933 150.229 33.9824 150.822 35.531C151.385 38.4367 150.648 40.9406 148.612 43.0426C144.629 44.5691 143.304 43.3419 144.636 39.3605C145.577 37.4778 146.51 35.6123 147.434 33.7636ZM147.14 38.7713C147.91 38.7056 148.401 39.0494 148.612 39.8023C147.744 40.8254 146.86 40.9235 145.961 40.0969C146.21 39.5057 146.602 39.0638 147.14 38.7713Z" fill="white"/>
<path opacity="0.87" fill-rule="evenodd" clip-rule="evenodd" d="M138.008 38.1822C139.581 38.381 140.465 39.2647 140.659 40.8333C140.375 42.2349 139.884 43.5605 139.186 44.8101C139.717 45.7259 140.208 46.6585 140.659 47.6085C140.408 49.2938 139.573 50.5705 138.155 51.438C137.043 51.0132 136.208 50.2768 135.651 49.2287C136.338 47.7558 137.026 46.2829 137.713 44.8101C136.907 44.3612 136.318 43.7228 135.946 42.8954C136.636 41.3194 137.323 39.7484 138.008 38.1822Z" fill="white"/>
<path opacity="0.875" fill-rule="evenodd" clip-rule="evenodd" d="M37.2636 39.0659C40.9566 40.0869 41.4477 42.0016 38.7364 44.8101C38.2139 45.0958 37.6739 45.3415 37.1163 45.5465C36.5902 44.7806 35.8537 44.2899 34.907 44.0736C33.3119 45.6355 31.6917 45.6355 30.0465 44.0736C30.3007 42.1946 31.1844 40.6236 32.6977 39.3605C33.9817 39.8589 34.8654 40.7426 35.3488 42.0116C35.9368 40.9847 36.5751 40.0029 37.2636 39.0659Z" fill="white"/>
<path opacity="0.503" fill-rule="evenodd" clip-rule="evenodd" d="M170.705 43.1899C171.206 43.1428 171.697 43.1917 172.178 43.3372C171.509 44.1379 170.675 44.6778 169.674 44.9574C169.635 44.152 169.979 43.5628 170.705 43.1899Z" fill="white"/>
</g>
<defs>
<clipPath id="clip0_33_264">
<rect width="190" height="67.7519" fill="white" transform="translate(0 0.624031)"/>
</clipPath>
</defs>
</svg>
